<svg xmlns="http://www.w3.org/2000/svg" xmlns:xlink="http://www.w3.org/1999/xlink" preserveAspectRatio="xMidYMid" width="460" height="460" viewBox="0 0 460 460">
  <defs>
    <style>
      .cls-1 {
        fill: #000;
        fill-rule: evenodd;
      }
    </style>
  </defs>
  <path d="M392.533,392.788 C437.511,347.811 459.999,293.548 459.999,229.999 C459.999,166.451 437.511,112.275 392.533,67.467 C347.726,22.490 293.548,-0.002 230.000,-0.002 C166.451,-0.002 112.189,22.490 67.211,67.467 C22.404,112.275 -0.001,166.451 -0.001,229.999 C-0.001,293.548 22.404,347.811 67.211,392.788 C112.189,437.598 166.451,459.999 230.000,459.999 C293.548,459.999 347.726,437.598 392.533,392.788 M230.000,38.847 C282.985,38.847 328.049,57.502 365.189,94.812 C402.670,132.292 421.410,177.355 421.410,229.999 C421.410,282.987 402.670,328.049 365.189,365.190 C328.049,402.671 282.985,421.410 230.000,421.410 C177.185,421.410 132.123,402.671 94.811,365.190 C57.500,328.049 38.845,282.987 38.845,229.999 C38.845,177.355 57.500,132.292 94.811,94.812 C132.123,57.502 177.185,38.847 230.000,38.847 M151.800,266.288 C131.355,283.666 121.047,308.626 120.878,341.166 C120.878,345.255 122.326,348.833 125.222,351.900 C128.290,354.967 131.866,356.501 135.956,356.501 C140.044,356.501 143.623,354.967 146.688,351.900 C149.586,349.002 151.032,345.512 151.032,341.423 C151.204,318.934 158.104,301.558 171.732,289.288 C185.702,277.702 204.785,271.911 228.978,271.911 C254.362,271.911 274.125,277.533 288.266,288.779 L288.012,288.779 C301.300,301.046 308.029,318.592 308.200,341.423 C308.200,345.512 309.820,349.002 313.056,351.900 C315.952,354.967 319.529,356.501 323.788,356.501 C327.706,356.501 331.200,354.967 334.267,351.900 C337.163,348.833 338.611,345.255 338.611,341.166 C338.440,307.944 328.134,282.814 307.689,265.777 C289.289,249.593 263.051,241.499 228.978,241.499 C196.096,241.499 170.370,249.850 151.800,266.545 L151.800,266.288 M110.144,167.389 C104.181,173.522 101.201,181.021 101.201,189.879 C101.201,198.566 104.181,205.894 110.144,211.855 C116.448,217.990 123.945,221.057 132.632,221.057 C141.323,221.057 148.647,217.990 154.611,211.855 C160.744,205.894 163.811,198.566 163.811,189.879 C163.811,181.021 160.744,173.522 154.611,167.389 C148.647,161.427 141.323,158.445 132.632,158.445 C123.945,158.445 116.448,161.427 110.144,167.389 M304.622,211.855 C310.925,217.990 318.423,221.057 327.112,221.057 C335.801,221.057 343.125,217.990 349.089,211.855 C355.392,205.894 358.543,198.566 358.543,189.879 C358.543,181.021 355.392,173.522 349.089,167.389 C343.125,161.427 335.801,158.445 327.112,158.445 C318.423,158.445 310.925,161.427 304.622,167.389 C298.660,173.522 295.678,181.021 295.678,189.879 C295.678,198.566 298.660,205.894 304.622,211.855 Z" class="cls-1"/>
</svg>
